0
SECTION
2
ENTITIES
0
3DFACE
8
0
10
32.0
20
305.0
30
0.0
11
32.0
21
304.0
31
0.0
12
609.0
22
304.0
32
0.0
13
609.0001
23
304.0001
33
1.0E-4
0
3DFACE
8
0
10
609.0
20
304.0
30
0.0
11
32.0
21
305.0
31
0.0
12
609.0
22
305.0
32
0.0
13
609.0001
23
305.0001
33
1.0E-4
0
3DFACE
8
0
10
608.0
20
304.0
30
0.0
11
609.0
21
304.0
31
0.0
12
609.0
22
337.0
32
0.0
13
609.0001
23
337.0001
33
1.0E-4
0
3DFACE
8
0
10
609.0
20
337.0
30
0.0
11
608.0
21
304.0
31
0.0
12
608.0
22
337.0
32
0.0
13
608.0001
23
337.0001
33
1.0E-4
0
3DFACE
8
0
10
609.0
20
336.0
30
0.0
11
609.0
21
337.0
31
0.0
12
32.0
22
337.0
32
0.0
13
32.0001
23
337.0001
33
1.0E-4
0
3DFACE
8
0
10
32.0
20
337.0
30
0.0
11
609.0
21
336.0
31
0.0
12
32.0
22
336.0
32
0.0
13
32.0001
23
336.0001
33
1.0E-4
0
3DFACE
8
0
10
33.0
20
337.0
30
0.0
11
32.0
21
337.0
31
0.0
12
32.0
22
304.0
32
0.0
13
32.0001
23
304.0001
33
1.0E-4
0
3DFACE
8
0
10
32.0
20
304.0
30
0.0
11
33.0
21
337.0
31
0.0
12
33.0
22
304.0
32
0.0
13
33.0001
23
304.0001
33
1.0E-4
0
3DFACE
8
0
10
42.851105
20
238.38513
30
0.0
11
43.081726
21
237.41208
31
0.0
12
604.5286
22
370.47745
32
0.0
13
604.52875
23
370.47754
33
1.0E-4
0
3DFACE
8
0
10
604.5286
20
370.47745
30
0.0
11
42.851105
21
238.38513
31
0.0
12
604.298
22
371.45047
32
0.0
13
604.2981
23
371.45056
33
1.0E-4
0
3DFACE
8
0
10
603.55554
20
370.24683
30
0.0
11
604.5286
21
370.47745
31
0.0
12
596.9183
22
402.58792
32
0.0
13
596.9184
23
402.588
33
1.0E-4
0
3DFACE
8
0
10
596.9183
20
402.58792
30
0.0
11
603.55554
21
370.24683
31
0.0
12
595.9452
22
402.3573
32
0.0
13
595.9453
23
402.3574
33
1.0E-4
0
3DFACE
8
0
10
597.1489
20
401.61487
30
0.0
11
596.9183
21
402.58792
31
0.0
12
35.471375
22
269.52255
32
0.0
13
35.471474
23
269.52264
33
1.0E-4
0
3DFACE
8
0
10
35.471375
20
269.52255
30
0.0
11
597.1489
21
401.61487
31
0.0
12
35.701996
22
268.54953
32
0.0
13
35.702095
23
268.54962
33
1.0E-4
0
3DFACE
8
0
10
36.444427
20
269.75317
30
0.0
11
35.471375
21
269.52255
31
0.0
12
43.081726
22
237.41208
32
0.0
13
43.081825
23
237.41219
33
1.0E-4
0
3DFACE
8
0
10
43.081726
20
237.41208
30
0.0
11
36.444427
21
269.75317
31
0.0
12
44.05478
22
237.6427
32
0.0
13
44.05488
23
237.6428
33
1.0E-4
0
3DFACE
8
0
10
69.14337
20
176.67014
30
0.0
11
69.59216
21
175.7765
31
0.0
12
585.2182
22
434.7336
32
0.0
13
585.2183
23
434.7337
33
1.0E-4
0
3DFACE
8
0
10
585.2182
20
434.7336
30
0.0
11
69.14337
21
176.67014
31
0.0
12
584.7694
22
435.62726
32
0.0
13
584.76953
23
435.62735
33
1.0E-4
0
3DFACE
8
0
10
584.3246
20
434.28482
30
0.0
11
585.2182
21
434.7336
31
0.0
12
570.40784
22
464.2235
32
0.0
13
570.40796
23
464.2236
33
1.0E-4
0
3DFACE
8
0
10
570.40784
20
464.2235
30
0.0
11
584.3246
21
434.28482
31
0.0
12
569.51416
22
463.7747
32
0.0
13
569.5143
23
463.77478
33
1.0E-4
0
3DFACE
8
0
10
570.8566
20
463.32986
30
0.0
11
570.40784
21
464.2235
31
0.0
12
54.7818
22
205.26639
32
0.0
13
54.7819
23
205.2665
33
1.0E-4
0
3DFACE
8
0
10
54.7818
20
205.26639
30
0.0
11
570.8566
21
463.32986
31
0.0
12
55.23059
22
204.37274
32
0.0
13
55.23069
23
204.37285
33
1.0E-4
0
3DFACE
8
0
10
55.675446
20
205.71518
30
0.0
11
54.7818
21
205.26639
31
0.0
12
69.59216
22
175.7765
32
0.0
13
69.59226
23
175.77661
33
1.0E-4
0
3DFACE
8
0
10
69.59216
20
175.7765
30
0.0
11
55.675446
21
205.71518
31
0.0
12
70.48581
22
176.22531
32
0.0
13
70.48591
23
176.22542
33
1.0E-4
0
3DFACE
8
0
10
108.95938
20
122.6821
30
0.0
11
109.60217
21
121.916046
31
0.0
12
551.60986
22
492.80447
32
0.0
13
551.61
23
492.80457
33
1.0E-4
0
3DFACE
8
0
10
551.60986
20
492.80447
30
0.0
11
108.95938
21
122.6821
31
0.0
12
550.96704
22
493.57053
32
0.0
13
550.96716
23
493.57062
33
1.0E-4
0
3DFACE
8
0
10
550.84375
20
492.16168
30
0.0
11
551.60986
21
492.80447
31
0.0
12
530.3978
22
518.084
32
0.0
13
530.39795
23
518.0841
33
1.0E-4
0
3DFACE
8
0
10
530.3978
20
518.084
30
0.0
11
550.84375
21
492.16168
31
0.0
12
529.63184
22
517.44116
32
0.0
13
529.63196
23
517.4413
33
1.0E-4
0
3DFACE
8
0
10
531.04065
20
517.3179
30
0.0
11
530.3978
21
518.084
31
0.0
12
88.39017
22
147.19553
32
0.0
13
88.39027
23
147.19563
33
1.0E-4
0
3DFACE
8
0
10
88.39017
20
147.19553
30
0.0
11
531.04065
21
517.3179
31
0.0
12
89.03296
22
146.42947
32
0.0
13
89.03306
23
146.42958
33
1.0E-4
0
3DFACE
8
0
10
89.15622
20
147.83832
30
0.0
11
88.39017
21
147.19553
31
0.0
12
109.60217
22
121.916046
32
0.0
13
109.60227
23
121.916145
33
1.0E-4
0
3DFACE
8
0
10
109.60217
20
121.916046
30
0.0
11
89.15622
21
147.83832
31
0.0
12
110.368195
22
122.55884
32
0.0
13
110.36829
23
122.55894
33
1.0E-4
0
3DFACE
8
0
10
160.15263
20
79.3315
30
0.0
11
160.95476
21
78.734344
31
0.0
12
505.51532
22
541.55945
32
0.0
13
505.5154
23
541.5596
33
1.0E-4
0
3DFACE
8
0
10
505.51532
20
541.55945
30
0.0
11
160.15263
21
79.3315
31
0.0
12
504.7132
22
542.15656
32
0.0
13
504.7133
23
542.1567
33
1.0E-4
0
3DFACE
8
0
10
504.91815
20
540.7573
30
0.0
11
505.51532
21
541.55945
31
0.0
12
479.04523
22
561.2656
32
0.0
13
479.04532
23
561.26575
33
1.0E-4
0
3DFACE
8
0
10
479.04523
20
561.2656
30
0.0
11
504.91815
21
540.7573
31
0.0
12
478.4481
22
560.4635
32
0.0
13
478.44818
23
560.4636
33
1.0E-4
0
3DFACE
8
0
10
479.84735
20
560.6685
30
0.0
11
479.04523
21
561.2656
31
0.0
12
134.4847
22
98.44058
32
0.0
13
134.4848
23
98.44068
33
1.0E-4
0
3DFACE
8
0
10
134.4847
20
98.44058
30
0.0
11
479.84735
21
560.6685
31
0.0
12
135.28682
22
97.84343
32
0.0
13
135.28693
23
97.84353
33
1.0E-4
0
3DFACE
8
0
10
135.08185
20
99.24271
30
0.0
11
134.4847
21
98.44058
31
0.0
12
160.95476
22
78.734344
32
0.0
13
160.95486
23
78.73444
33
1.0E-4
0
3DFACE
8
0
10
160.95476
20
78.734344
30
0.0
11
135.08185
21
99.24271
31
0.0
12
161.55191
22
79.53647
32
0.0
13
161.55202
23
79.53657
33
1.0E-4
0
3DFACE
8
0
10
219.9633
20
48.955414
30
0.0
11
220.88153
21
48.559357
31
0.0
12
449.41962
22
578.37
32
0.0
13
449.4197
23
578.3701
33
1.0E-4
0
3DFACE
8
0
10
449.41962
20
578.37
30
0.0
11
219.9633
21
48.955414
31
0.0
12
448.5014
22
578.7661
32
0.0
13
448.5015
23
578.76624
33
1.0E-4
0
3DFACE
8
0
10
449.02353
20
577.4518
30
0.0
11
449.41962
21
578.37
31
0.0
12
419.11847
22
591.4407
32
0.0
13
419.11856
23
591.4408
33
1.0E-4
0
3DFACE
8
0
10
419.11847
20
591.4407
30
0.0
11
449.02353
21
577.4518
31
0.0
12
418.7224
22
590.52246
32
0.0
13
418.7225
23
590.5226
33
1.0E-4
0
3DFACE
8
0
10
420.03668
20
591.04456
30
0.0
11
419.11847
21
591.4407
31
0.0
12
190.58038
22
61.629974
32
0.0
13
190.58049
23
61.630074
33
1.0E-4
0
3DFACE
8
0
10
190.58038
20
61.629974
30
0.0
11
420.03668
21
591.04456
31
0.0
12
191.49861
22
61.233917
32
0.0
13
191.49872
23
61.234016
33
1.0E-4
0
3DFACE
8
0
10
190.97647
20
62.548187
30
0.0
11
190.58038
21
61.629974
31
0.0
12
220.88153
22
48.559357
32
0.0
13
220.88164
23
48.559456
33
1.0E-4
0
3DFACE
8
0
10
220.88153
20
48.559357
30
0.0
11
190.97647
21
62.548187
31
0.0
12
221.2776
22
49.47757
32
0.0
13
221.27771
23
49.47767
33
1.0E-4
0
3DFACE
8
0
10
285.167
20
33.191406
30
0.0
11
286.1518
21
33.01776
31
0.0
12
386.34686
22
601.25183
32
0.0
13
386.34695
23
601.25195
33
1.0E-4
0
3DFACE
8
0
10
386.34686
20
601.25183
30
0.0
11
285.167
21
33.191406
31
0.0
12
385.36206
22
601.4255
32
0.0
13
385.36215
23
601.4256
33
1.0E-4
0
3DFACE
8
0
10
386.17322
20
600.267
30
0.0
11
386.34686
21
601.25183
31
0.0
12
353.8482
22
606.98224
32
0.0
13
353.8483
23
606.98236
33
1.0E-4
0
3DFACE
8
0
10
353.8482
20
606.98224
30
0.0
11
386.17322
21
600.267
31
0.0
12
353.67456
22
605.99744
32
0.0
13
353.67465
23
605.99756
33
1.0E-4
0
3DFACE
8
0
10
354.833
20
606.8086
30
0.0
11
353.8482
21
606.98224
31
0.0
12
253.65314
22
38.74817
32
0.0
13
253.65324
23
38.74827
33
1.0E-4
0
3DFACE
8
0
10
253.65314
20
38.74817
30
0.0
11
354.833
21
606.8086
31
0.0
12
254.63794
22
38.574524
32
0.0
13
254.63805
23
38.574623
33
1.0E-4
0
3DFACE
8
0
10
253.82678
20
39.73297
30
0.0
11
253.65314
21
38.74817
31
0.0
12
286.1518
22
33.01776
32
0.0
13
286.1519
23
33.01786
33
1.0E-4
0
3DFACE
8
0
10
286.1518
20
33.01776
30
0.0
11
253.82678
21
39.73297
31
0.0
12
286.32544
22
34.002563
32
0.0
13
286.32553
23
34.002663
33
1.0E-4
0
3DFACE
8
0
10
352.24854
20
32.889343
30
0.0
11
353.24683
21
32.94748
31
0.0
12
319.69733
22
608.9713
32
0.0
13
319.69742
23
608.97144
33
1.0E-4
0
3DFACE
8
0
10
319.69733
20
608.9713
30
0.0
11
352.24854
21
32.889343
31
0.0
12
318.69904
22
608.91315
32
0.0
13
318.69913
23
608.91327
33
1.0E-4
0
3DFACE
8
0
10
319.7555
20
607.97296
30
0.0
11
319.69733
21
608.9713
31
0.0
12
286.75317
22
607.0525
32
0.0
13
286.75327
23
607.0526
33
1.0E-4
0
3DFACE
8
0
10
286.75317
20
607.0525
30
0.0
11
319.7555
21
607.97296
31
0.0
12
286.8113
22
606.0542
32
0.0
13
286.8114
23
606.0543
33
1.0E-4
0
3DFACE
8
0
10
287.75146
20
607.11066
30
0.0
11
286.75317
21
607.0525
31
0.0
12
320.30267
22
31.028717
32
0.0
13
320.30276
23
31.028816
33
1.0E-4
0
3DFACE
8
0
10
320.30267
20
31.028717
30
0.0
11
287.75146
21
607.11066
31
0.0
12
321.30096
22
31.086853
32
0.0
13
321.30106
23
31.086952
33
1.0E-4
0
3DFACE
8
0
10
320.2445
20
32.02704
30
0.0
11
320.30267
21
31.028717
31
0.0
12
353.24683
22
32.94748
32
0.0
13
353.24692
23
32.94758
33
1.0E-4
0
3DFACE
8
0
10
353.24683
20
32.94748
30
0.0
11
320.2445
21
32.02704
31
0.0
12
353.1887
22
33.9458
32
0.0
13
353.18878
23
33.9459
33
1.0E-4
0
3DFACE
8
0
10
417.59155
20
48.06546
30
0.0
11
418.54953
21
48.352264
31
0.0
12
253.06412
22
601.1122
32
0.0
13
253.06422
23
601.1123
33
1.0E-4
0
3DFACE
8
0
10
253.06412
20
601.1122
30
0.0
11
417.59155
21
48.06546
31
0.0
12
252.10614
22
600.82544
32
0.0
13
252.10625
23
600.82556
33
1.0E-4
0
3DFACE
8
0
10
253.35092
20
600.15424
30
0.0
11
253.06412
21
601.1122
31
0.0
12
221.45047
22
591.6477
32
0.0
13
221.45058
23
591.6478
33
1.0E-4
0
3DFACE
8
0
10
221.45047
20
591.6477
30
0.0
11
253.35092
21
600.15424
31
0.0
12
221.73727
22
590.68976
32
0.0
13
221.73738
23
590.6899
33
1.0E-4
0
3DFACE
8
0
10
222.40846
20
591.9346
30
0.0
11
221.45047
21
591.6477
31
0.0
12
386.93588
22
38.887787
32
0.0
13
386.93597
23
38.887886
33
1.0E-4
0
3DFACE
8
0
10
386.93588
20
38.887787
30
0.0
11
222.40846
21
591.9346
31
0.0
12
387.89386
22
39.17459
32
0.0
13
387.89395
23
39.17469
33
1.0E-4
0
3DFACE
8
0
10
386.64908
20
39.845764
30
0.0
11
386.93588
21
38.887787
31
0.0
12
418.54953
22
48.352264
32
0.0
13
418.54962
23
48.352364
33
1.0E-4
0
3DFACE
8
0
10
418.54953
20
48.352264
30
0.0
11
386.64908
21
39.845764
31
0.0
12
418.26273
22
49.31024
32
0.0
13
418.26282
23
49.31034
33
1.0E-4
0
3DFACE
8
0
10
477.67337
20
77.90167
30
0.0
11
478.53937
21
78.40167
31
0.0
12
190.03944
22
578.0983
32
0.0
13
190.03955
23
578.09845
33
1.0E-4
0
3DFACE
8
0
10
190.03944
20
578.0983
30
0.0
11
477.67337
21
77.90167
31
0.0
12
189.17343
22
577.5983
32
0.0
13
189.17354
23
577.59845
33
1.0E-4
0
3DFACE
8
0
10
190.53944
20
577.2323
30
0.0
11
190.03944
21
578.0983
31
0.0
12
161.46062
22
561.5983
32
0.0
13
161.46072
23
561.59845
33
1.0E-4
0
3DFACE
8
0
10
161.46062
20
561.5983
30
0.0
11
190.53944
21
577.2323
31
0.0
12
161.96062
22
560.7323
32
0.0
13
161.96072
23
560.7324
33
1.0E-4
0
3DFACE
8
0
10
162.32663
20
562.0983
30
0.0
11
161.46062
21
561.5983
31
0.0
12
449.96057
22
61.901672
32
0.0
13
449.96066
23
61.90177
33
1.0E-4
0
3DFACE
8
0
10
449.96057
20
61.901672
30
0.0
11
162.32663
21
562.0983
31
0.0
12
450.82657
22
62.401672
32
0.0
13
450.82666
23
62.40177
33
1.0E-4
0
3DFACE
8
0
10
449.46057
20
62.7677
30
0.0
11
449.96057
21
61.901672
31
0.0
12
478.53937
22
78.40167
32
0.0
13
478.53946
23
78.40177
33
1.0E-4
0
3DFACE
8
0
10
478.53937
20
78.40167
30
0.0
11
449.46057
21
62.7677
31
0.0
12
478.03937
22
79.2677
32
0.0
13
478.03946
23
79.2678
33
1.0E-4
0
3DFACE
8
0
10
529.255
20
120.789444
30
0.0
11
529.98236
21
121.47568
31
0.0
12
134.02098
22
541.1703
32
0.0
13
134.02109
23
541.1704
33
1.0E-4
0
3DFACE
8
0
10
134.02098
20
541.1703
30
0.0
11
529.255
21
120.789444
31
0.0
12
133.29361
22
540.4841
32
0.0
13
133.29372
23
540.4842
33
1.0E-4
0
3DFACE
8
0
10
134.70723
20
540.44293
30
0.0
11
134.02098
21
541.1703
31
0.0
12
110.017654
22
518.5243
32
0.0
13
110.01775
23
518.5244
33
1.0E-4
0
3DFACE
8
0
10
110.017654
20
518.5243
30
0.0
11
134.70723
21
540.44293
31
0.0
12
110.7039
22
517.79694
32
0.0
13
110.704
23
517.79706
33
1.0E-4
0
3DFACE
8
0
10
110.745026
20
519.2106
30
0.0
11
110.017654
21
518.5243
31
0.0
12
505.979
22
98.82971
32
0.0
13
505.9791
23
98.82981
33
1.0E-4
0
3DFACE
8
0
10
505.979
20
98.82971
30
0.0
11
110.745026
21
519.2106
31
0.0
12
506.7064
22
99.515945
32
0.0
13
506.70648
23
99.516045
33
1.0E-4
0
3DFACE
8
0
10
505.2928
20
99.55708
30
0.0
11
505.979
21
98.82971
31
0.0
12
529.98236
22
121.47568
32
0.0
13
529.9825
23
121.47578
33
1.0E-4
0
3DFACE
8
0
10
529.98236
20
121.47568
30
0.0
11
505.2928
21
99.55708
31
0.0
12
529.2961
22
122.20305
32
0.0
13
529.2962
23
122.20315
33
1.0E-4
0
3DFACE
8
0
10
569.5556
20
174.41672
30
0.0
11
570.1051
21
175.25221
31
0.0
12
88.02869
22
492.3189
32
0.0
13
88.028786
23
492.319
33
1.0E-4
0
3DFACE
8
0
10
88.02869
20
492.3189
30
0.0
11
569.5556
21
174.41672
31
0.0
12
87.47919
22
491.4834
32
0.0
13
87.47929
23
491.4835
33
1.0E-4
0
3DFACE
8
0
10
88.86418
20
491.7694
30
0.0
11
88.02869
21
492.3189
31
0.0
12
69.8949
22
464.7478
32
0.0
13
69.895
23
464.7479
33
1.0E-4
0
3DFACE
8
0
10
69.8949
20
464.7478
30
0.0
11
88.86418
21
491.7694
31
0.0
12
70.73039
22
464.1983
32
0.0
13
70.73049
23
464.1984
33
1.0E-4
0
3DFACE
8
0
10
70.4444
20
465.58328
30
0.0
11
69.8949
21
464.7478
31
0.0
12
551.9713
22
147.6811
32
0.0
13
551.97144
23
147.68121
33
1.0E-4
0
3DFACE
8
0
10
551.9713
20
147.6811
30
0.0
11
70.4444
21
465.58328
31
0.0
12
552.5208
22
148.5166
32
0.0
13
552.52094
23
148.51671
33
1.0E-4
0
3DFACE
8
0
10
551.1358
20
148.2306
30
0.0
11
551.9713
21
147.6811
31
0.0
12
570.1051
22
175.25221
32
0.0
13
570.1052
23
175.25232
33
1.0E-4
0
3DFACE
8
0
10
570.1051
20
175.25221
30
0.0
11
551.1358
21
148.2306
31
0.0
12
569.2696
22
175.80171
32
0.0
13
569.2697
23
175.80182
33
1.0E-4
0
3DFACE
8
0
10
596.4026
20
235.89243
30
0.0
11
596.7446
21
236.83212
31
0.0
12
54.542053
22
434.17773
32
0.0
13
54.542152
23
434.17783
33
1.0E-4
0
3DFACE
8
0
10
54.542053
20
434.17773
30
0.0
11
596.4026
21
235.89243
31
0.0
12
54.200012
22
433.23804
32
0.0
13
54.20011
23
433.23813
33
1.0E-4
0
3DFACE
8
0
10
55.48172
20
433.83572
30
0.0
11
54.542053
21
434.17773
31
0.0
12
43.25537
22
403.16788
32
0.0
13
43.25547
23
403.16797
33
1.0E-4
0
3DFACE
8
0
10
43.25537
20
403.16788
30
0.0
11
55.48172
21
433.83572
31
0.0
12
44.195038
22
402.82587
32
0.0
13
44.195137
23
402.82596
33
1.0E-4
0
3DFACE
8
0
10
43.597412
20
404.10757
30
0.0
11
43.25537
21
403.16788
31
0.0
12
585.45795
22
205.82227
32
0.0
13
585.45807
23
205.82237
33
1.0E-4
0
3DFACE
8
0
10
585.45795
20
205.82227
30
0.0
11
43.597412
21
404.10757
31
0.0
12
585.8
22
206.76196
32
0.0
13
585.8001
23
206.76207
33
1.0E-4
0
3DFACE
8
0
10
584.5183
20
206.16428
30
0.0
11
585.45795
21
205.82227
31
0.0
12
596.7446
22
236.83212
32
0.0
13
596.74475
23
236.83223
33
1.0E-4
0
3DFACE
8
0
10
596.7446
20
236.83212
30
0.0
11
584.5183
21
206.16428
31
0.0
12
595.80493
22
237.17413
32
0.0
13
595.80505
23
237.17424
33
1.0E-4
0
3DFACE
8
0
10
608.3487
20
301.90237
30
0.0
11
608.4648
21
302.89563
31
0.0
12
35.366272
22
369.88126
32
0.0
13
35.36637
23
369.88135
33
1.0E-4
0
3DFACE
8
0
10
35.366272
20
369.88126
30
0.0
11
608.3487
21
301.90237
31
0.0
12
35.250183
22
368.888
32
0.0
13
35.250282
23
368.8881
33
1.0E-4
0
3DFACE
8
0
10
36.359497
20
369.76514
30
0.0
11
35.366272
21
369.88126
31
0.0
12
31.535217
22
337.10437
32
0.0
13
31.535316
23
337.10446
33
1.0E-4
0
3DFACE
8
0
10
31.535217
20
337.10437
30
0.0
11
36.359497
21
369.76514
31
0.0
12
32.528442
22
336.98828
32
0.0
13
32.52854
23
336.98837
33
1.0E-4
0
3DFACE
8
0
10
31.651306
20
338.09763
30
0.0
11
31.535217
21
337.10437
31
0.0
12
604.6337
22
270.11874
32
0.0
13
604.63385
23
270.11884
33
1.0E-4
0
3DFACE
8
0
10
604.6337
20
270.11874
30
0.0
11
31.651306
21
338.09763
31
0.0
12
604.7498
22
271.112
32
0.0
13
604.74994
23
271.1121
33
1.0E-4
0
3DFACE
8
0
10
603.6405
20
270.23486
30
0.0
11
604.6337
21
270.11874
31
0.0
12
608.4648
22
302.89563
32
0.0
13
608.4649
23
302.89572
33
1.0E-4
0
3DFACE
8
0
10
608.4648
20
302.89563
30
0.0
11
603.6405
21
270.23486
31
0.0
12
607.47156
22
303.01172
32
0.0
13
607.4717
23
303.0118
33
1.0E-4
0
3DFACE
8
0
10
604.7498
20
368.888
30
0.0
11
604.6337
21
369.88123
31
0.0
12
31.535217
22
302.89563
32
0.0
13
31.535316
23
302.89572
33
1.0E-4
0
3DFACE
8
0
10
31.535217
20
302.89563
30
0.0
11
604.7498
21
368.888
31
0.0
12
31.651306
22
301.9024
32
0.0
13
31.651405
23
301.9025
33
1.0E-4
0
3DFACE
8
0
10
32.528442
20
303.01172
30
0.0
11
31.535217
21
302.89563
31
0.0
12
35.366272
22
270.11877
32
0.0
13
35.36637
23
270.11887
33
1.0E-4
0
3DFACE
8
0
10
35.366272
20
270.11877
30
0.0
11
32.528442
21
303.01172
31
0.0
12
36.359497
22
270.23486
32
0.0
13
36.359596
23
270.23495
33
1.0E-4
0
3DFACE
8
0
10
35.250183
20
271.112
30
0.0
11
35.366272
21
270.11877
31
0.0
12
608.4648
22
337.10437
32
0.0
13
608.4649
23
337.10446
33
1.0E-4
0
3DFACE
8
0
10
608.4648
20
337.10437
30
0.0
11
35.250183
21
271.112
31
0.0
12
608.3487
22
338.0976
32
0.0
13
608.3488
23
338.0977
33
1.0E-4
0
3DFACE
8
0
10
607.47156
20
336.98828
30
0.0
11
608.4648
21
337.10437
31
0.0
12
604.6337
22
369.88123
32
0.0
13
604.63385
23
369.88132
33
1.0E-4
0
3DFACE
8
0
10
604.6337
20
369.88123
30
0.0
11
607.47156
21
336.98828
31
0.0
12
603.6405
22
369.76514
32
0.0
13
603.6406
23
369.76523
33
1.0E-4
0
3DFACE
8
0
10
585.80005
20
433.23804
30
0.0
11
585.458
21
434.17773
31
0.0
12
43.25534
22
236.83212
32
0.0
13
43.25544
23
236.83223
33
1.0E-4
0
3DFACE
8
0
10
43.25534
20
236.83212
30
0.0
11
585.80005
21
433.23804
31
0.0
12
43.59738
22
235.89243
32
0.0
13
43.59748
23
235.89253
33
1.0E-4
0
3DFACE
8
0
10
44.195038
20
237.17413
30
0.0
11
43.25534
21
236.83212
31
0.0
12
54.542023
22
205.82227
32
0.0
13
54.54212
23
205.82237
33
1.0E-4
0
3DFACE
8
0
10
54.542023
20
205.82227
30
0.0
11
44.195038
21
237.17413
31
0.0
12
55.48172
22
206.16428
32
0.0
13
55.48182
23
206.16438
33
1.0E-4
0
3DFACE
8
0
10
54.19998
20
206.76196
30
0.0
11
54.542023
21
205.82227
31
0.0
12
596.7446
22
403.16788
32
0.0
13
596.74475
23
403.16797
33
1.0E-4
0
3DFACE
8
0
10
596.7446
20
403.16788
30
0.0
11
54.19998
21
206.76196
31
0.0
12
596.4026
22
404.10757
32
0.0
13
596.4027
23
404.10767
33
1.0E-4
0
3DFACE
8
0
10
595.80493
20
402.82587
30
0.0
11
596.7446
21
403.16788
31
0.0
12
585.458
22
434.17773
32
0.0
13
585.4581
23
434.17783
33
1.0E-4
0
3DFACE
8
0
10
585.458
20
434.17773
30
0.0
11
595.80493
21
402.82587
31
0.0
12
584.5183
22
433.83572
32
0.0
13
584.51843
23
433.83582
33
1.0E-4
0
3DFACE
8
0
10
552.5209
20
491.4834
30
0.0
11
551.9713
21
492.31888
31
0.0
12
69.89487
22
175.25223
32
0.0
13
69.894966
23
175.25233
33
1.0E-4
0
3DFACE
8
0
10
69.89487
20
175.25223
30
0.0
11
552.5209
21
491.4834
31
0.0
12
70.44437
22
174.41673
32
0.0
13
70.444466
23
174.41684
33
1.0E-4
0
3DFACE
8
0
10
70.73035
20
175.80174
30
0.0
11
69.89487
21
175.25223
31
0.0
12
88.028656
22
147.68112
32
0.0
13
88.028755
23
147.68123
33
1.0E-4
0
3DFACE
8
0
10
88.028656
20
147.68112
30
0.0
11
70.73035
21
175.80174
31
0.0
12
88.864136
22
148.23064
32
0.0
13
88.864235
23
148.23074
33
1.0E-4
0
3DFACE
8
0
10
87.47916
20
148.51662
30
0.0
11
88.028656
21
147.68112
31
0.0
12
570.1051
22
464.74777
32
0.0
13
570.1052
23
464.74786
33
1.0E-4
0
3DFACE
8
0
10
570.1051
20
464.74777
30
0.0
11
87.47916
21
148.51662
31
0.0
12
569.55566
22
465.58325
32
0.0
13
569.5558
23
465.58334
33
1.0E-4
0
3DFACE
8
0
10
569.26965
20
464.19824
30
0.0
11
570.1051
21
464.74777
31
0.0
12
551.9713
22
492.31888
32
0.0
13
551.97144
23
492.31897
33
1.0E-4
0
3DFACE
8
0
10
551.9713
20
492.31888
30
0.0
11
569.26965
21
464.19824
31
0.0
12
551.13586
22
491.76935
32
0.0
13
551.136
23
491.76944
33
1.0E-4
0
3DFACE
8
0
10
506.70642
20
540.484
30
0.0
11
505.97906
21
541.1703
31
0.0
12
110.01761
22
121.47569
32
0.0
13
110.01771
23
121.47579
33
1.0E-4
0
3DFACE
8
0
10
110.01761
20
121.47569
30
0.0
11
506.70642
21
540.484
31
0.0
12
110.74498
22
120.78946
32
0.0
13
110.74508
23
120.78956
33
1.0E-4
0
3DFACE
8
0
10
110.70386
20
122.20308
30
0.0
11
110.01761
21
121.47569
31
0.0
12
134.02094
22
98.82973
32
0.0
13
134.02104
23
98.82983
33
1.0E-4
0
3DFACE
8
0
10
134.02094
20
98.82973
30
0.0
11
110.70386
21
122.20308
31
0.0
12
134.70718
22
99.55711
32
0.0
13
134.70729
23
99.55721
33
1.0E-4
0
3DFACE
8
0
10
133.29356
20
99.51596
30
0.0
11
134.02094
21
98.82973
31
0.0
12
529.9824
22
518.5243
32
0.0
13
529.98254
23
518.5244
33
1.0E-4
0
3DFACE
8
0
10
529.9824
20
518.5243
30
0.0
11
133.29356
21
99.51596
31
0.0
12
529.255
22
519.2106
32
0.0
13
529.2551
23
519.2107
33
1.0E-4
0
3DFACE
8
0
10
529.29614
20
517.79694
30
0.0
11
529.9824
21
518.5243
31
0.0
12
505.97906
22
541.1703
32
0.0
13
505.97916
23
541.1704
33
1.0E-4
0
3DFACE
8
0
10
505.97906
20
541.1703
30
0.0
11
529.29614
21
517.79694
31
0.0
12
505.29282
22
540.4429
32
0.0
13
505.2929
23
540.443
33
1.0E-4
0
3DFACE
8
0
10
450.82666
20
577.5983
30
0.0
11
449.96063
21
578.0983
31
0.0
12
161.46056
22
78.40169
32
0.0
13
161.46066
23
78.40179
33
1.0E-4
0
3DFACE
8
0
10
161.46056
20
78.40169
30
0.0
11
450.82666
21
577.5983
31
0.0
12
162.32658
22
77.90169
32
0.0
13
162.32669
23
77.90179
33
1.0E-4
0
3DFACE
8
0
10
161.96056
20
79.267715
30
0.0
11
161.46056
21
78.40169
31
0.0
12
190.03938
22
61.901672
32
0.0
13
190.03949
23
61.90177
33
1.0E-4
0
3DFACE
8
0
10
190.03938
20
61.901672
30
0.0
11
161.96056
21
79.267715
31
0.0
12
190.53938
22
62.7677
32
0.0
13
190.53949
23
62.7678
33
1.0E-4
0
3DFACE
8
0
10
189.17336
20
62.401672
30
0.0
11
190.03938
21
61.901672
31
0.0
12
478.53943
22
561.5983
32
0.0
13
478.53952
23
561.59845
33
1.0E-4
0
3DFACE
8
0
10
478.53943
20
561.5983
30
0.0
11
189.17336
21
62.401672
31
0.0
12
477.6734
22
562.0983
32
0.0
13
477.6735
23
562.09845
33
1.0E-4
0
3DFACE
8
0
10
478.03943
20
560.7323
30
0.0
11
478.53943
21
561.5983
31
0.0
12
449.96063
22
578.0983
32
0.0
13
449.96072
23
578.09845
33
1.0E-4
0
3DFACE
8
0
10
449.96063
20
578.0983
30
0.0
11
478.03943
21
560.7323
31
0.0
12
449.46063
22
577.2323
32
0.0
13
449.46072
23
577.2324
33
1.0E-4
0
3DFACE
8
0
10
387.89392
20
600.82544
30
0.0
11
386.93594
21
601.11224
31
0.0
12
221.45041
22
48.352295
32
0.0
13
221.45052
23
48.352394
33
1.0E-4
0
3DFACE
8
0
10
221.45041
20
48.352295
30
0.0
11
387.89392
21
600.82544
31
0.0
12
222.40839
22
48.06549
32
0.0
13
222.4085
23
48.06559
33
1.0E-4
0
3DFACE
8
0
10
221.73721
20
49.310272
30
0.0
11
221.45041
21
48.352295
31
0.0
12
253.06406
22
38.887756
32
0.0
13
253.06416
23
38.887856
33
1.0E-4
0
3DFACE
8
0
10
253.06406
20
38.887756
30
0.0
11
221.73721
21
49.310272
31
0.0
12
253.35086
22
39.845734
32
0.0
13
253.35097
23
39.845833
33
1.0E-4
0
3DFACE
8
0
10
252.10608
20
39.17456
30
0.0
11
253.06406
21
38.887756
31
0.0
12
418.5496
22
591.6477
32
0.0
13
418.54968
23
591.6478
33
1.0E-4
0
3DFACE
8
0
10
418.5496
20
591.6477
30
0.0
11
252.10608
21
39.17456
31
0.0
12
417.5916
22
591.9345
32
0.0
13
417.5917
23
591.93463
33
1.0E-4
0
3DFACE
8
0
10
418.2628
20
590.6897
30
0.0
11
418.5496
21
591.6477
31
0.0
12
386.93594
22
601.11224
32
0.0
13
386.93604
23
601.11237
33
1.0E-4
0
3DFACE
8
0
10
386.93594
20
601.11224
30
0.0
11
418.2628
21
590.6897
31
0.0
12
386.64914
22
600.1543
32
0.0
13
386.64923
23
600.1544
33
1.0E-4
0
3DFACE
8
0
10
321.30106
20
608.91315
30
0.0
11
320.30273
21
608.9713
31
0.0
12
286.75308
22
32.94748
32
0.0
13
286.75317
23
32.94758
33
1.0E-4
0
3DFACE
8
0
10
286.75308
20
32.94748
30
0.0
11
321.30106
21
608.91315
31
0.0
12
287.7514
22
32.889343
32
0.0
13
287.7515
23
32.889442
33
1.0E-4
0
3DFACE
8
0
10
286.81125
20
33.94577
30
0.0
11
286.75308
21
32.94748
31
0.0
12
319.69727
22
31.028717
32
0.0
13
319.69736
23
31.028816
33
1.0E-4
0
3DFACE
8
0
10
319.69727
20
31.028717
30
0.0
11
286.81125
21
33.94577
31
0.0
12
319.7554
22
32.027008
32
0.0
13
319.7555
23
32.027107
33
1.0E-4
0
3DFACE
8
0
10
318.69894
20
31.086853
30
0.0
11
319.69727
21
31.028717
31
0.0
12
353.24692
22
607.0525
32
0.0
13
353.247
23
607.0526
33
1.0E-4
0
3DFACE
8
0
10
353.24692
20
607.0525
30
0.0
11
318.69894
21
31.086853
31
0.0
12
352.2486
22
607.11066
32
0.0
13
352.2487
23
607.1108
33
1.0E-4
0
3DFACE
8
0
10
353.18875
20
606.0542
30
0.0
11
353.24692
21
607.0525
31
0.0
12
320.30273
22
608.9713
32
0.0
13
320.30283
23
608.97144
33
1.0E-4
0
3DFACE
8
0
10
320.30273
20
608.9713
30
0.0
11
353.18875
21
606.0542
31
0.0
12
320.2446
22
607.973
32
0.0
13
320.2447
23
607.97314
33
1.0E-4
0
3DFACE
8
0
10
254.63802
20
601.4255
30
0.0
11
253.65321
21
601.25183
31
0.0
12
353.84814
22
33.01776
32
0.0
13
353.84824
23
33.01786
33
1.0E-4
0
3DFACE
8
0
10
353.84814
20
33.01776
30
0.0
11
254.63802
21
601.4255
31
0.0
12
354.83295
22
33.191406
32
0.0
13
354.83304
23
33.191505
33
1.0E-4
0
3DFACE
8
0
10
353.6745
20
34.002563
30
0.0
11
353.84814
21
33.01776
31
0.0
12
386.3468
22
38.74817
32
0.0
13
386.3469
23
38.74827
33
1.0E-4
0
3DFACE
8
0
10
386.3468
20
38.74817
30
0.0
11
353.6745
21
34.002563
31
0.0
12
386.17316
22
39.73297
32
0.0
13
386.17325
23
39.73307
33
1.0E-4
0
3DFACE
8
0
10
385.362
20
38.574524
30
0.0
11
386.3468
21
38.74817
31
0.0
12
286.15186
22
606.98224
32
0.0
13
286.15195
23
606.98236
33
1.0E-4
0
3DFACE
8
0
10
286.15186
20
606.98224
30
0.0
11
385.362
21
38.574524
31
0.0
12
285.16705
22
606.8086
32
0.0
13
285.16714
23
606.8087
33
1.0E-4
0
3DFACE
8
0
10
286.3255
20
605.99744
30
0.0
11
286.15186
21
606.98224
31
0.0
12
253.65321
22
601.25183
32
0.0
13
253.65332
23
601.25195
33
1.0E-4
0
3DFACE
8
0
10
253.65321
20
601.25183
30
0.0
11
286.3255
21
605.99744
31
0.0
12
253.82686
22
600.267
32
0.0
13
253.82697
23
600.26715
33
1.0E-4
0
3DFACE
8
0
10
191.49867
20
578.7661
30
0.0
11
190.58044
21
578.37006
31
0.0
12
419.1184
22
48.559326
32
0.0
13
419.1185
23
48.559425
33
1.0E-4
0
3DFACE
8
0
10
419.1184
20
48.559326
30
0.0
11
191.49867
21
578.7661
31
0.0
12
420.03662
22
48.955414
32
0.0
13
420.0367
23
48.955513
33
1.0E-4
0
3DFACE
8
0
10
418.72235
20
49.47754
30
0.0
11
419.1184
21
48.559326
31
0.0
12
449.41956
22
61.629944
32
0.0
13
449.41965
23
61.630043
33
1.0E-4
0
3DFACE
8
0
10
449.41956
20
61.629944
30
0.0
11
418.72235
21
49.47754
31
0.0
12
449.02347
22
62.548157
32
0.0
13
449.02356
23
62.548256
33
1.0E-4
0
3DFACE
8
0
10
448.50134
20
61.233856
30
0.0
11
449.41956
21
61.629944
31
0.0
12
220.88159
22
591.4407
32
0.0
13
220.8817
23
591.4408
33
1.0E-4
0
3DFACE
8
0
10
220.88159
20
591.4407
30
0.0
11
448.50134
21
61.233856
31
0.0
12
219.96338
22
591.04456
32
0.0
13
219.96349
23
591.0447
33
1.0E-4
0
3DFACE
8
0
10
221.27766
20
590.52246
30
0.0
11
220.88159
21
591.4407
31
0.0
12
190.58044
22
578.37006
32
0.0
13
190.58055
23
578.3702
33
1.0E-4
0
3DFACE
8
0
10
190.58044
20
578.37006
30
0.0
11
221.27766
21
590.52246
31
0.0
12
190.97653
22
577.45184
32
0.0
13
190.97664
23
577.45197
33
1.0E-4
0
3DFACE
8
0
10
135.28687
20
542.1566
30
0.0
11
134.48474
21
541.55945
31
0.0
12
479.0452
22
78.73433
32
0.0
13
479.0453
23
78.73443
33
1.0E-4
0
3DFACE
8
0
10
479.0452
20
78.73433
30
0.0
11
135.28687
21
542.1566
31
0.0
12
479.84732
22
79.3315
32
0.0
13
479.8474
23
79.3316
33
1.0E-4
0
3DFACE
8
0
10
478.44803
20
79.53645
30
0.0
11
479.0452
21
78.73433
31
0.0
12
505.51526
22
98.44057
32
0.0
13
505.51535
23
98.44067
33
1.0E-4
0
3DFACE
8
0
10
505.51526
20
98.44057
30
0.0
11
478.44803
21
79.53645
31
0.0
12
504.9181
22
99.24269
32
0.0
13
504.91818
23
99.24279
33
1.0E-4
0
3DFACE
8
0
10
504.71313
20
97.8434
30
0.0
11
505.51526
21
98.44057
31
0.0
12
160.9548
22
561.2657
32
0.0
13
160.95491
23
561.2658
33
1.0E-4
0
3DFACE
8
0
10
160.9548
20
561.2657
30
0.0
11
504.71313
21
97.8434
31
0.0
12
160.15268
22
560.6685
32
0.0
13
160.15279
23
560.66864
33
1.0E-4
0
3DFACE
8
0
10
161.55197
20
560.46356
30
0.0
11
160.9548
21
561.2657
31
0.0
12
134.48474
22
541.55945
32
0.0
13
134.48485
23
541.5596
33
1.0E-4
0
3DFACE
8
0
10
134.48474
20
541.55945
30
0.0
11
161.55197
21
560.46356
31
0.0
12
135.08191
22
540.7573
32
0.0
13
135.08202
23
540.75745
33
1.0E-4
0
3DFACE
8
0
10
89.03299
20
493.57056
30
0.0
11
88.3902
21
492.8045
31
0.0
12
530.3978
22
121.916016
32
0.0
13
530.39795
23
121.916115
33
1.0E-4
0
3DFACE
8
0
10
530.3978
20
121.916016
30
0.0
11
89.03299
21
493.57056
31
0.0
12
531.0406
22
122.68207
32
0.0
13
531.0407
23
122.68217
33
1.0E-4
0
3DFACE
8
0
10
529.6318
20
122.55881
30
0.0
11
530.3978
21
121.916016
31
0.0
12
551.6098
22
147.1955
32
0.0
13
551.6099
23
147.1956
33
1.0E-4
0
3DFACE
8
0
10
551.6098
20
147.1955
30
0.0
11
529.6318
21
122.55881
31
0.0
12
550.84375
22
147.83826
32
0.0
13
550.8439
23
147.83836
33
1.0E-4
0
3DFACE
8
0
10
550.96704
20
146.42944
30
0.0
11
551.6098
21
147.1955
31
0.0
12
109.6022
22
518.084
32
0.0
13
109.6023
23
518.0841
33
1.0E-4
0
3DFACE
8
0
10
109.6022
20
518.084
30
0.0
11
550.96704
21
146.42944
31
0.0
12
108.95941
22
517.31793
32
0.0
13
108.95951
23
517.31805
33
1.0E-4
0
3DFACE
8
0
10
110.36824
20
517.44116
30
0.0
11
109.6022
21
518.084
31
0.0
12
88.3902
22
492.8045
32
0.0
13
88.3903
23
492.8046
33
1.0E-4
0
3DFACE
8
0
10
88.3902
20
492.8045
30
0.0
11
110.36824
21
517.44116
31
0.0
12
89.156235
22
492.16174
32
0.0
13
89.156334
23
492.16183
33
1.0E-4
0
3DFACE
8
0
10
55.23062
20
435.62732
30
0.0
11
54.78183
21
434.73367
31
0.0
12
570.40784
22
175.77646
32
0.0
13
570.40796
23
175.77657
33
1.0E-4
0
3DFACE
8
0
10
570.40784
20
175.77646
30
0.0
11
55.23062
21
435.62732
31
0.0
12
570.85657
22
176.67009
32
0.0
13
570.8567
23
176.6702
33
1.0E-4
0
3DFACE
8
0
10
569.51416
20
176.22527
30
0.0
11
570.40784
21
175.77646
31
0.0
12
585.21814
22
205.26633
32
0.0
13
585.21826
23
205.26643
33
1.0E-4
0
3DFACE
8
0
10
585.21814
20
205.26633
30
0.0
11
569.51416
21
176.22527
31
0.0
12
584.3246
22
205.71513
32
0.0
13
584.3247
23
205.71524
33
1.0E-4
0
3DFACE
8
0
10
584.7694
20
204.3727
30
0.0
11
585.21814
21
205.26633
31
0.0
12
69.59219
22
464.22354
32
0.0
13
69.59229
23
464.22363
33
1.0E-4
0
3DFACE
8
0
10
69.59219
20
464.22354
30
0.0
11
584.7694
21
204.3727
31
0.0
12
69.1434
22
463.3299
32
0.0
13
69.1435
23
463.33
33
1.0E-4
0
3DFACE
8
0
10
70.48581
20
463.77472
30
0.0
11
69.59219
21
464.22354
31
0.0
12
54.78183
22
434.73367
32
0.0
13
54.78193
23
434.73376
33
1.0E-4
0
3DFACE
8
0
10
54.78183
20
434.73367
30
0.0
11
70.48581
21
463.77472
31
0.0
12
55.675446
22
434.28485
32
0.0
13
55.675545
23
434.28494
33
1.0E-4
0
3DFACE
8
0
10
35.701996
20
371.45053
30
0.0
11
35.471375
21
370.47748
31
0.0
12
596.9183
22
237.41205
32
0.0
13
596.9184
23
237.41216
33
1.0E-4
0
3DFACE
8
0
10
596.9183
20
237.41205
30
0.0
11
35.701996
21
371.45053
31
0.0
12
597.1489
22
238.38509
32
0.0
13
597.14905
23
238.3852
33
1.0E-4
0
3DFACE
8
0
10
595.9452
20
237.64265
30
0.0
11
596.9183
21
237.41205
31
0.0
12
604.5286
22
269.52252
32
0.0
13
604.52875
23
269.5226
33
1.0E-4
0
3DFACE
8
0
10
604.5286
20
269.52252
30
0.0
11
595.9452
21
237.64265
31
0.0
12
603.55554
22
269.75314
32
0.0
13
603.55566
23
269.75323
33
1.0E-4
0
3DFACE
8
0
10
604.298
20
268.54947
30
0.0
11
604.5286
21
269.52252
31
0.0
12
43.081726
22
402.58795
32
0.0
13
43.081825
23
402.58804
33
1.0E-4
0
3DFACE
8
0
10
43.081726
20
402.58795
30
0.0
11
604.298
21
268.54947
31
0.0
12
42.851105
22
401.61493
32
0.0
13
42.851204
23
401.61502
33
1.0E-4
0
3DFACE
8
0
10
44.05478
20
402.35736
30
0.0
11
43.081726
21
402.58795
31
0.0
12
35.471375
22
370.47748
32
0.0
13
35.471474
23
370.47757
33
1.0E-4
0
3DFACE
8
0
10
35.471375
20
370.47748
30
0.0
11
44.05478
21
402.35736
31
0.0
12
36.444427
22
370.24686
32
0.0
13
36.444527
23
370.24695
33
1.0E-4
0
ENDSEC
0
EOF
