  0
SECTION
  2
HEADER
  9
$ACADVER
  1
AC1014
  9
$HANDSEED
  5
FFFF
  9
$MEASUREMENT
 70
     1
  0
ENDSEC
  0
SECTION
  2
TABLES
  0
TABLE
  2
VPORT
  5
8
330
0
100
AcDbSymbolTable
 70
     4
  0
VPORT
  5
2E
330
8
100
AcDbSymbolTableRecord
100
AcDbViewportTableRecord
  2
*ACTIVE
 70
     0
 10
0.0
 20
0.0
 11
1.0
 21
1.0
 12
210.0
 22
148.5
 13
0.0
 23
0.0
 14
10.0
 24
10.0
 15
10.0
 25
10.0
 16
0.0
 26
0.0
 36
1.0
 17
0.0
 27
0.0
 37
0.0
 40
341.0
 41
1.24
 42
50.0
 43
0.0
 44
0.0
 50
0.0
 51
0.0
 71
     0
 72
   100
 73
     1
 74
     3
 75
     0
 76
     0
 77
     0
 78
     0
  0
ENDTAB
  0
TABLE
  2
LTYPE
  5
5
330
0
100
AcDbSymbolTable
 70
     1
  0
LTYPE
  5
14
330
5
100
AcDbSymbolTableRecord
100
AcDbLinetypeTableRecord
  2
BYBLOCK
 70
     0
  3

 72
    65
 73
     0
 40
0.0
  0
LTYPE
  5
15
330
5
100
AcDbSymbolTableRecord
100
AcDbLinetypeTableRecord
  2
BYLAYER
 70
     0
  3

 72
    65
 73
     0
 40
0.0
  0
LTYPE
  5
16
330
5
100
AcDbSymbolTableRecord
100
AcDbLinetypeTableRecord
  2
CONTINUOUS
 70
     0
  3
Solid line
 72
    65
 73
     0
 40
0.0
  0
ENDTAB
  0
TABLE
  2
LAYER
  5
2
100
AcDbSymbolTable
 70
2
  0
LAYER
  5
50
100
AcDbSymbolTableRecord
100
AcDbLayerTableRecord
  2
0
 70
0
  6
CONTINUOUS
  0
LAYER
  5
51
100
AcDbSymbolTableRecord
100
AcDbLayerTableRecord
  2
Nancy_traced
 70
0
  6
CONTINUOUS
  0
ENDTAB
  0
TABLE
  2
STYLE
  5
3
330
0
100
AcDbSymbolTable
 70
     1
  0
STYLE
  5
11
330
3
100
AcDbSymbolTableRecord
100
AcDbTextStyleTableRecord
  2
STANDARD
 70
     0
 40
0.0
 41
1.0
 50
0.0
 71
     0
 42
2.5
  3
txt
  4

  0
ENDTAB
  0
TABLE
  2
VIEW
  5
6
330
0
100
AcDbSymbolTable
 70
     0
  0
ENDTAB
  0
TABLE
  2
UCS
  5
7
330
0
100
AcDbSymbolTable
 70
     0
  0
ENDTAB
  0
TABLE
  2
APPID
  5
9
330
0
100
AcDbSymbolTable
 70
     2
  0
APPID
  5
12
330
9
100
AcDbSymbolTableRecord
100
AcDbRegAppTableRecord
  2
ACAD
 70
     0
  0
ENDTAB
  0
TABLE
  2
DIMSTYLE
  5
A
330
0
100
AcDbSymbolTable
 70
     1
  0
DIMSTYLE
105
27
330
A
100
AcDbSymbolTableRecord
100
AcDbDimStyleTableRecord
  2
ISO-25
 70
     0
  3

  4

  5

  6

  7

 40
1.0
 41
2.5
 42
0.625
 43
3.75
 44
1.25
 45
0.0
 46
0.0
 47
0.0
 48
0.0
140
2.5
141
2.5
142
0.0
143
0.03937007874016
144
1.0
145
0.0
146
1.0
147
0.625
 71
     0
 72
     0
 73
     0
 74
     0
 75
     0
 76
     0
 77
     1
 78
     8
170
     0
171
     3
172
     1
173
     0
174
     0
175
     0
176
     0
177
     0
178
     0
270
     2
271
     2
272
     2
273
     2
274
     3
340
11
275
     0
280
     0
281
     0
282
     0
283
     0
284
     8
285
     0
286
     0
287
     3
288
     0
  0
ENDTAB
  0
TABLE
  2
BLOCK_RECORD
  5
1
330
0
100
AcDbSymbolTable
 70
     1
  0
BLOCK_RECORD
  5
1F
330
1
100
AcDbSymbolTableRecord
100
AcDbBlockTableRecord
  2
*MODEL_SPACE
  0
BLOCK_RECORD
  5
1B
330
1
100
AcDbSymbolTableRecord
100
AcDbBlockTableRecord
  2
*PAPER_SPACE
  0
ENDTAB
  0
ENDSEC
  0
SECTION
  2
BLOCKS
  0
BLOCK
  5
20
330
1F
100
AcDbEntity
  8
0
100
AcDbBlockBegin
  2
*MODEL_SPACE
 70
     0
 10
0.0
 20
0.0
 30
0.0
  3
*MODEL_SPACE
  1

  0
ENDBLK
  5
21
330
1F
100
AcDbEntity
  8
0
100
AcDbBlockEnd
  0
BLOCK
  5
1C
330
1B
100
AcDbEntity
 67
     1
  8
0
100
AcDbBlockBegin
  2
*PAPER_SPACE
  1

  0
ENDBLK
  5
1D
330
1B
100
AcDbEntity
 67
     1
  8
0
100
AcDbBlockEnd
  0
ENDSEC
  0
SECTION
  2
ENTITIES
  0
LWPOLYLINE
  5
100
100
AcDbEntity
  8
Nancy_traced
 62
7
100
AcDbPolyline
 90
6
 70
1
 10
0.000000
 20
144.000000
 30
0.0
 10
433.000000
 20
144.000000
 30
0.0
 10
433.000000
 20
0.000000
 30
0.0
 10
0.000000
 20
0.000000
 30
0.0
 10
0.000000
 20
144.000000
 30
0.0
 10
0.000000
 20
144.000000
 30
0.0
  0
LWPOLYLINE
  5
101
100
AcDbEntity
  8
Nancy_traced
 62
7
100
AcDbPolyline
 90
6
 70
0
 10
0.068130
 20
143.860000
 30
0.0
 10
2.450000
 20
143.860000
 30
0.0
 10
2.380000
 20
1.070000
 30
0.0
 10
0.068130
 20
1.140000
 30
0.0
 10
0.068130
 20
143.730000
 30
0.0
 10
0.068130
 20
143.800000
 30
0.0
  0
LWPOLYLINE
  5
102
100
AcDbEntity
  8
Nancy_traced
 62
7
100
AcDbPolyline
 90
250
 70
0
 10
2.860000
 20
46.510000
 30
0.0
 10
10.360000
 20
46.510000
 30
0.0
 10
20.100000
 20
32.200000
 30
0.0
 10
20.230000
 20
46.580000
 30
0.0
 10
27.660000
 20
46.510000
 30
0.0
 10
27.730000
 20
21.440000
 30
0.0
 10
30.450000
 20
21.510000
 30
0.0
 10
39.850000
 20
46.510000
 30
0.0
 10
48.580000
 20
46.510000
 30
0.0
 10
58.050000
 20
21.440000
 30
0.0
 10
61.040000
 20
21.510000
 30
0.0
 10
61.110000
 20
46.580000
 30
0.0
 10
68.540000
 20
46.510000
 30
0.0
 10
78.280000
 20
32.200000
 30
0.0
 10
78.420000
 20
46.580000
 30
0.0
 10
85.840000
 20
46.510000
 30
0.0
 10
85.910000
 20
21.440000
 30
0.0
 10
96.610000
 20
21.510000
 30
0.0
 10
95.110000
 20
22.460000
 30
0.0
 10
93.610000
 20
23.820000
 30
0.0
 10
92.250000
 20
25.660000
 30
0.0
 10
91.360000
 20
27.430000
 30
0.0
 10
90.810000
 20
29.140000
 30
0.0
 10
90.470000
 20
30.910000
 30
0.0
 10
90.340000
 20
32.820000
 30
0.0
 10
90.340000
 20
35.470000
 30
0.0
 10
90.610000
 20
37.380000
 30
0.0
 10
91.160000
 20
39.420000
 30
0.0
 10
91.970000
 20
41.190000
 30
0.0
 10
93.060000
 20
42.830000
 30
0.0
 10
94.630000
 20
44.400000
 30
0.0
 10
96.200000
 20
45.420000
 30
0.0
 10
97.970000
 20
46.170000
 30
0.0
 10
99.470000
 20
46.580000
 30
0.0
 10
101.100000
 20
46.850000
 30
0.0
 10
102.740000
 20
46.990000
 30
0.0
 10
105.670000
 20
46.920000
 30
0.0
 10
107.850000
 20
46.510000
 30
0.0
 10
109.890000
 20
45.760000
 30
0.0
 10
111.390000
 20
44.810000
 30
0.0
 10
112.680000
 20
43.650000
 30
0.0
 10
113.840000
 20
42.080000
 30
0.0
 10
114.860000
 20
40.040000
 30
0.0
 10
115.270000
 20
39.010000
 30
0.0
 10
108.260000
 20
37.450000
 30
0.0
 10
107.570000
 20
38.950000
 30
0.0
 10
106.690000
 20
39.970000
 30
0.0
 10
105.730000
 20
40.580000
 30
0.0
 10
104.710000
 20
40.920000
 30
0.0
 10
103.620000
 20
41.060000
 30
0.0
 10
102.530000
 20
40.990000
 30
0.0
 10
101.310000
 20
40.580000
 30
0.0
 10
100.490000
 20
40.040000
 30
0.0
 10
99.540000
 20
39.080000
 30
0.0
 10
98.990000
 20
38.130000
 30
0.0
 10
98.580000
 20
36.830000
 30
0.0
 10
98.380000
 20
35.400000
 30
0.0
 10
98.240000
 20
33.700000
 30
0.0
 10
98.380000
 20
31.250000
 30
0.0
 10
98.720000
 20
29.540000
 30
0.0
 10
99.260000
 20
28.180000
 30
0.0
 10
100.080000
 20
27.230000
 30
0.0
 10
101.240000
 20
26.480000
 30
0.0
 10
102.400000
 20
26.210000
 30
0.0
 10
104.510000
 20
26.210000
 30
0.0
 10
105.600000
 20
26.550000
 30
0.0
 10
106.690000
 20
27.300000
 30
0.0
 10
107.570000
 20
28.450000
 30
0.0
 10
108.260000
 20
30.160000
 30
0.0
 10
108.600000
 20
31.180000
 30
0.0
 10
115.410000
 20
29.070000
 30
0.0
 10
115.410000
 20
28.590000
 30
0.0
 10
114.730000
 20
26.620000
 30
0.0
 10
113.770000
 20
24.840000
 30
0.0
 10
112.680000
 20
23.410000
 30
0.0
 10
111.320000
 20
22.190000
 30
0.0
 10
110.230000
 20
21.510000
 30
0.0
 10
126.990000
 20
21.510000
 30
0.0
 10
126.920000
 20
31.590000
 30
0.0
 10
116.910000
 20
46.510000
 30
0.0
 10
125.760000
 20
46.510000
 30
0.0
 10
131.010000
 20
37.790000
 30
0.0
 10
136.320000
 20
46.580000
 30
0.0
 10
145.040000
 20
46.510000
 30
0.0
 10
134.960000
 20
31.380000
 30
0.0
 10
135.030000
 20
21.440000
 30
0.0
 10
145.930000
 20
21.510000
 30
0.0
 10
146.000000
 20
62.310000
 30
0.0
 10
151.930000
 20
62.380000
 30
0.0
 10
151.860000
 20
69.600000
 30
0.0
 10
145.040000
 20
79.760000
 30
0.0
 10
151.110000
 20
79.760000
 30
0.0
 10
154.650000
 20
73.830000
 30
0.0
 10
158.260000
 20
79.820000
 30
0.0
 10
164.320000
 20
79.820000
 30
0.0
 10
157.380000
 20
69.400000
 30
0.0
 10
157.440000
 20
62.310000
 30
0.0
 10
162.420000
 20
62.380000
 30
0.0
 10
168.960000
 20
79.760000
 30
0.0
 10
175.020000
 20
79.760000
 30
0.0
 10
181.560000
 20
62.380000
 30
0.0
 10
187.220000
 20
62.380000
 30
0.0
 10
185.790000
 20
62.860000
 30
0.0
 10
184.490000
 20
63.750000
 30
0.0
 10
183.470000
 20
64.770000
 30
0.0
 10
182.580000
 20
66.270000
 30
0.0
 10
182.170000
 20
67.490000
 30
0.0
 10
181.900000
 20
69.130000
 30
0.0
 10
181.900000
 20
72.870000
 30
0.0
 10
182.310000
 20
74.780000
 30
0.0
 10
182.860000
 20
76.080000
 30
0.0
 10
183.670000
 20
77.370000
 30
0.0
 10
184.700000
 20
78.390000
 30
0.0
 10
186.130000
 20
79.210000
 30
0.0
 10
187.220000
 20
79.550000
 30
0.0
 10
188.510000
 20
79.760000
 30
0.0
 10
198.180000
 20
79.760000
 30
0.0
 10
198.250000
 20
62.310000
 30
0.0
 10
202.000000
 20
62.380000
 30
0.0
 10
202.070000
 20
79.820000
 30
0.0
 10
207.450000
 20
79.760000
 30
0.0
 10
207.520000
 20
73.620000
 30
0.0
 10
213.580000
 20
73.690000
 30
0.0
 10
213.650000
 20
79.820000
 30
0.0
 10
219.030000
 20
79.760000
 30
0.0
 10
219.100000
 20
62.310000
 30
0.0
 10
227.280000
 20
62.380000
 30
0.0
 10
227.210000
 20
75.530000
 30
0.0
 10
221.620000
 20
75.600000
 30
0.0
 10
221.690000
 20
79.820000
 30
0.0
 10
238.380000
 20
79.760000
 30
0.0
 10
238.310000
 20
75.530000
 30
0.0
 10
232.730000
 20
75.460000
 30
0.0
 10
232.790000
 20
62.310000
 30
0.0
 10
238.930000
 20
62.380000
 30
0.0
 10
241.650000
 20
67.630000
 30
0.0
 10
242.880000
 20
69.130000
 30
0.0
 10
244.100000
 20
69.740000
 30
0.0
 10
244.440000
 20
69.880000
 30
0.0
 10
243.630000
 20
70.150000
 30
0.0
 10
242.540000
 20
70.630000
 30
0.0
 10
241.650000
 20
71.310000
 30
0.0
 10
240.830000
 20
72.260000
 30
0.0
 10
240.360000
 20
73.420000
 30
0.0
 10
240.150000
 20
75.050000
 30
0.0
 10
240.360000
 20
76.490000
 30
0.0
 10
240.760000
 20
77.440000
 30
0.0
 10
241.510000
 20
78.460000
 30
0.0
 10
242.600000
 20
79.210000
 30
0.0
 10
243.690000
 20
79.550000
 30
0.0
 10
245.120000
 20
79.760000
 30
0.0
 10
256.230000
 20
79.760000
 30
0.0
 10
256.300000
 20
62.310000
 30
0.0
 10
260.390000
 20
62.380000
 30
0.0
 10
260.450000
 20
79.820000
 30
0.0
 10
265.840000
 20
79.760000
 30
0.0
 10
265.900000
 20
62.310000
 30
0.0
 10
272.720000
 20
62.380000
 30
0.0
 10
271.490000
 20
62.790000
 30
0.0
 10
270.260000
 20
63.750000
 30
0.0
 10
269.510000
 20
64.840000
 30
0.0
 10
269.110000
 20
66.060000
 30
0.0
 10
268.970000
 20
67.290000
 30
0.0
 10
269.240000
 20
68.790000
 30
0.0
 10
269.860000
 20
69.880000
 30
0.0
 10
270.740000
 20
70.690000
 30
0.0
 10
271.900000
 20
71.240000
 30
0.0
 10
272.720000
 20
71.510000
 30
0.0
 10
271.420000
 20
72.190000
 30
0.0
 10
270.470000
 20
73.150000
 30
0.0
 10
270.060000
 20
74.030000
 30
0.0
 10
269.860000
 20
75.050000
 30
0.0
 10
269.920000
 20
76.490000
 30
0.0
 10
270.400000
 20
77.640000
 30
0.0
 10
271.420000
 20
78.800000
 30
0.0
 10
272.380000
 20
79.350000
 30
0.0
 10
273.470000
 20
79.690000
 30
0.0
 10
274.690000
 20
79.820000
 30
0.0
 10
285.460000
 20
79.760000
 30
0.0
 10
285.520000
 20
62.310000
 30
0.0
 10
289.000000
 20
62.380000
 30
0.0
 10
289.070000
 20
129.080000
 30
0.0
 10
297.170000
 20
129.010000
 30
0.0
 10
297.240000
 20
119.680000
 30
0.0
 10
306.300000
 20
119.750000
 30
0.0
 10
306.370000
 20
129.080000
 30
0.0
 10
314.620000
 20
129.010000
 30
0.0
 10
314.680000
 20
103.190000
 30
0.0
 10
317.820000
 20
103.260000
 30
0.0
 10
327.560000
 20
129.080000
 30
0.0
 10
336.550000
 20
129.010000
 30
0.0
 10
346.230000
 20
103.260000
 30
0.0
 10
349.290000
 20
103.260000
 30
0.0
 10
349.360000
 20
129.080000
 30
0.0
 10
364.550000
 20
129.010000
 30
0.0
 10
366.260000
 20
128.740000
 30
0.0
 10
367.820000
 20
128.190000
 30
0.0
 10
369.120000
 20
127.440000
 30
0.0
 10
370.070000
 20
126.560000
 30
0.0
 10
370.890000
 20
125.470000
 30
0.0
 10
371.430000
 20
124.240000
 30
0.0
 10
371.840000
 20
122.610000
 30
0.0
 10
371.980000
 20
120.290000
 30
0.0
 10
371.770000
 20
118.660000
 30
0.0
 10
371.160000
 20
116.750000
 30
0.0
 10
370.410000
 20
115.520000
 30
0.0
 10
369.460000
 20
114.430000
 30
0.0
 10
367.960000
 20
113.410000
 30
0.0
 10
366.320000
 20
112.800000
 30
0.0
 10
365.100000
 20
112.520000
 30
0.0
 10
363.460000
 20
112.320000
 30
0.0
 10
357.540000
 20
112.180000
 30
0.0
 10
357.600000
 20
103.190000
 30
0.0
 10
376.340000
 20
103.260000
 30
0.0
 10
376.410000
 20
129.080000
 30
0.0
 10
391.600000
 20
129.010000
 30
0.0
 10
393.300000
 20
128.740000
 30
0.0
 10
394.870000
 20
128.190000
 30
0.0
 10
396.160000
 20
127.440000
 30
0.0
 10
397.120000
 20
126.560000
 30
0.0
 10
397.940000
 20
125.470000
 30
0.0
 10
398.480000
 20
124.240000
 30
0.0
 10
398.890000
 20
122.610000
 30
0.0
 10
399.030000
 20
120.290000
 30
0.0
 10
398.820000
 20
118.660000
 30
0.0
 10
398.210000
 20
116.750000
 30
0.0
 10
397.460000
 20
115.520000
 30
0.0
 10
396.510000
 20
114.430000
 30
0.0
 10
395.010000
 20
113.410000
 30
0.0
 10
393.370000
 20
112.800000
 30
0.0
 10
392.150000
 20
112.520000
 30
0.0
 10
390.510000
 20
112.320000
 30
0.0
 10
384.580000
 20
112.180000
 30
0.0
 10
384.650000
 20
103.190000
 30
0.0
 10
411.150000
 20
103.260000
 30
0.0
 10
411.080000
 20
113.610000
 30
0.0
 10
400.730000
 20
129.010000
 30
0.0
 10
409.860000
 20
129.010000
 30
0.0
 10
415.240000
 20
120.090000
 30
0.0
 10
415.380000
 20
120.090000
 30
0.0
 10
420.760000
 20
129.080000
 30
0.0
 10
429.750000
 20
129.010000
 30
0.0
 10
419.400000
 20
113.480000
 30
0.0
 10
419.460000
 20
103.190000
 30
0.0
 10
431.800000
 20
103.260000
 30
0.0
 10
431.860000
 20
143.930000
 30
0.0
 10
431.860000
 20
1.070000
 30
0.0
 10
2.860000
 20
1.140000
 30
0.0
 10
2.860000
 20
46.370000
 30
0.0
 10
2.860000
 20
46.440000
 30
0.0
  0
LWPOLYLINE
  5
103
100
AcDbEntity
  8
Nancy_traced
 62
7
100
AcDbPolyline
 90
6
 70
0
 10
10.360000
 20
34.790000
 30
0.0
 10
10.490000
 20
34.790000
 30
0.0
 10
19.550000
 20
21.510000
 30
0.0
 10
10.360000
 20
21.510000
 30
0.0
 10
10.360000
 20
34.650000
 30
0.0
 10
10.360000
 20
34.720000
 30
0.0
  0
LWPOLYLINE
  5
104
100
AcDbEntity
  8
Nancy_traced
 62
7
100
AcDbPolyline
 90
6
 70
0
 10
38.490000
 20
21.570000
 30
0.0
 10
39.510000
 20
24.910000
 30
0.0
 10
48.710000
 20
24.840000
 30
0.0
 10
49.730000
 20
21.510000
 30
0.0
 10
38.560000
 20
21.440000
 30
0.0
 10
38.490000
 20
21.510000
 30
0.0
  0
LWPOLYLINE
  5
105
100
AcDbEntity
  8
Nancy_traced
 62
7
100
AcDbPolyline
 90
6
 70
0
 10
41.220000
 20
30.570000
 30
0.0
 10
44.080000
 20
39.760000
 30
0.0
 10
44.220000
 20
39.630000
 30
0.0
 10
47.010000
 20
30.570000
 30
0.0
 10
41.350000
 20
30.500000
 30
0.0
 10
41.290000
 20
30.500000
 30
0.0
  0
LWPOLYLINE
  5
106
100
AcDbEntity
  8
Nancy_traced
 62
7
100
AcDbPolyline
 90
6
 70
0
 10
68.540000
 20
34.790000
 30
0.0
 10
68.670000
 20
34.790000
 30
0.0
 10
77.730000
 20
21.510000
 30
0.0
 10
68.540000
 20
21.510000
 30
0.0
 10
68.540000
 20
34.650000
 30
0.0
 10
68.540000
 20
34.720000
 30
0.0
  0
LWPOLYLINE
  5
107
100
AcDbEntity
  8
Nancy_traced
 62
7
100
AcDbPolyline
 90
6
 70
0
 10
168.070000
 20
62.380000
 30
0.0
 10
168.890000
 20
64.970000
 30
0.0
 10
175.230000
 20
64.900000
 30
0.0
 10
175.970000
 20
62.380000
 30
0.0
 10
168.210000
 20
62.310000
 30
0.0
 10
168.140000
 20
62.310000
 30
0.0
  0
LWPOLYLINE
  5
108
100
AcDbEntity
  8
Nancy_traced
 62
7
100
AcDbPolyline
 90
6
 70
0
 10
170.050000
 20
68.990000
 30
0.0
 10
172.020000
 20
75.260000
 30
0.0
 10
172.430000
 20
74.030000
 30
0.0
 10
174.000000
 20
68.850000
 30
0.0
 10
170.050000
 20
68.850000
 30
0.0
 10
170.050000
 20
68.920000
 30
0.0
  0
LWPOLYLINE
  5
109
100
AcDbEntity
  8
Nancy_traced
 62
7
100
AcDbPolyline
 90
15
 70
0
 10
187.280000
 20
71.850000
 30
0.0
 10
187.560000
 20
73.490000
 30
0.0
 10
187.970000
 20
74.440000
 30
0.0
 10
188.850000
 20
75.330000
 30
0.0
 10
189.940000
 20
75.740000
 30
0.0
 10
191.300000
 20
75.870000
 30
0.0
 10
192.730000
 20
75.800000
 30
0.0
 10
192.670000
 20
66.060000
 30
0.0
 10
189.740000
 20
66.130000
 30
0.0
 10
188.920000
 20
66.400000
 30
0.0
 10
188.100000
 20
67.080000
 30
0.0
 10
187.560000
 20
68.170000
 30
0.0
 10
187.350000
 20
69.600000
 30
0.0
 10
187.280000
 20
71.720000
 30
0.0
 10
187.280000
 20
71.780000
 30
0.0
  0
LWPOLYLINE
  5
10a
100
AcDbEntity
  8
Nancy_traced
 62
7
100
AcDbPolyline
 90
6
 70
0
 10
207.450000
 20
69.200000
 30
0.0
 10
213.580000
 20
69.200000
 30
0.0
 10
213.510000
 20
62.310000
 30
0.0
 10
207.450000
 20
62.380000
 30
0.0
 10
207.450000
 20
69.060000
 30
0.0
 10
207.450000
 20
69.130000
 30
0.0
  0
LWPOLYLINE
  5
10b
100
AcDbEntity
  8
Nancy_traced
 62
7
100
AcDbPolyline
 90
9
 70
0
 10
245.120000
 20
62.450000
 30
0.0
 10
248.260000
 20
68.170000
 30
0.0
 10
248.800000
 20
68.790000
 30
0.0
 10
249.350000
 20
69.130000
 30
0.0
 10
250.030000
 20
69.260000
 30
0.0
 10
250.710000
 20
69.260000
 30
0.0
 10
250.710000
 20
62.310000
 30
0.0
 10
245.190000
 20
62.310000
 30
0.0
 10
245.120000
 20
62.380000
 30
0.0
  0
LWPOLYLINE
  5
10c
100
AcDbEntity
  8
Nancy_traced
 62
7
100
AcDbPolyline
 90
12
 70
0
 10
245.670000
 20
74.920000
 30
0.0
 10
246.010000
 20
75.600000
 30
0.0
 10
246.560000
 20
76.080000
 30
0.0
 10
247.650000
 20
76.280000
 30
0.0
 10
250.780000
 20
76.210000
 30
0.0
 10
250.710000
 20
72.600000
 30
0.0
 10
247.710000
 20
72.670000
 30
0.0
 10
246.620000
 20
72.940000
 30
0.0
 10
245.940000
 20
73.490000
 30
0.0
 10
245.670000
 20
74.310000
 30
0.0
 10
245.670000
 20
74.780000
 30
0.0
 10
245.670000
 20
74.850000
 30
0.0
  0
LWPOLYLINE
  5
10d
100
AcDbEntity
  8
Nancy_traced
 62
7
100
AcDbPolyline
 90
12
 70
0
 10
274.490000
 20
68.110000
 30
0.0
 10
274.900000
 20
68.850000
 30
0.0
 10
275.510000
 20
69.260000
 30
0.0
 10
276.400000
 20
69.470000
 30
0.0
 10
279.940000
 20
69.470000
 30
0.0
 10
279.870000
 20
65.790000
 30
0.0
 10
276.190000
 20
65.860000
 30
0.0
 10
275.370000
 20
66.130000
 30
0.0
 10
274.620000
 20
66.880000
 30
0.0
 10
274.490000
 20
67.700000
 30
0.0
 10
274.490000
 20
67.970000
 30
0.0
 10
274.490000
 20
68.040000
 30
0.0
  0
LWPOLYLINE
  5
10e
100
AcDbEntity
  8
Nancy_traced
 62
7
100
AcDbPolyline
 90
12
 70
0
 10
275.170000
 20
74.920000
 30
0.0
 10
275.580000
 20
75.740000
 30
0.0
 10
276.190000
 20
76.140000
 30
0.0
 10
277.280000
 20
76.280000
 30
0.0
 10
279.940000
 20
76.210000
 30
0.0
 10
279.870000
 20
72.870000
 30
0.0
 10
276.400000
 20
72.940000
 30
0.0
 10
275.710000
 20
73.280000
 30
0.0
 10
275.310000
 20
73.830000
 30
0.0
 10
275.170000
 20
74.650000
 30
0.0
 10
275.170000
 20
74.780000
 30
0.0
 10
275.170000
 20
74.850000
 30
0.0
  0
LWPOLYLINE
  5
10f
100
AcDbEntity
  8
Nancy_traced
 62
7
100
AcDbPolyline
 90
6
 70
0
 10
297.170000
 20
113.070000
 30
0.0
 10
306.300000
 20
113.070000
 30
0.0
 10
306.240000
 20
103.190000
 30
0.0
 10
297.170000
 20
103.260000
 30
0.0
 10
297.170000
 20
112.930000
 30
0.0
 10
297.170000
 20
113.000000
 30
0.0
  0
LWPOLYLINE
  5
110
100
AcDbEntity
  8
Nancy_traced
 62
7
100
AcDbPolyline
 90
6
 70
0
 10
326.130000
 20
103.330000
 30
0.0
 10
327.150000
 20
106.670000
 30
0.0
 10
336.690000
 20
106.670000
 30
0.0
 10
337.710000
 20
103.260000
 30
0.0
 10
326.200000
 20
103.190000
 30
0.0
 10
326.130000
 20
103.260000
 30
0.0
  0
LWPOLYLINE
  5
111
100
AcDbEntity
  8
Nancy_traced
 62
7
100
AcDbPolyline
 90
5
 70
0
 10
328.920000
 20
112.520000
 30
0.0
 10
331.920000
 20
122.130000
 30
0.0
 10
334.920000
 20
112.520000
 30
0.0
 10
329.060000
 20
112.460000
 30
0.0
 10
328.990000
 20
112.460000
 30
0.0
  0
LWPOLYLINE
  5
112
100
AcDbEntity
  8
Nancy_traced
 62
7
100
AcDbPolyline
 90
14
 70
0
 10
357.540000
 20
123.630000
 30
0.0
 10
361.150000
 20
123.630000
 30
0.0
 10
362.370000
 20
123.290000
 30
0.0
 10
363.050000
 20
122.810000
 30
0.0
 10
363.670000
 20
121.990000
 30
0.0
 10
363.940000
 20
121.040000
 30
0.0
 10
363.870000
 20
119.750000
 30
0.0
 10
363.400000
 20
118.930000
 30
0.0
 10
362.710000
 20
118.250000
 30
0.0
 10
361.620000
 20
117.840000
 30
0.0
 10
360.670000
 20
117.700000
 30
0.0
 10
357.540000
 20
117.700000
 30
0.0
 10
357.540000
 20
123.490000
 30
0.0
 10
357.540000
 20
123.560000
 30
0.0
  0
LWPOLYLINE
  5
113
100
AcDbEntity
  8
Nancy_traced
 62
7
100
AcDbPolyline
 90
14
 70
0
 10
384.580000
 20
123.630000
 30
0.0
 10
388.190000
 20
123.630000
 30
0.0
 10
389.420000
 20
123.290000
 30
0.0
 10
390.100000
 20
122.810000
 30
0.0
 10
390.710000
 20
121.990000
 30
0.0
 10
390.990000
 20
121.040000
 30
0.0
 10
390.920000
 20
119.750000
 30
0.0
 10
390.440000
 20
118.930000
 30
0.0
 10
389.760000
 20
118.250000
 30
0.0
 10
388.670000
 20
117.840000
 30
0.0
 10
387.720000
 20
117.700000
 30
0.0
 10
384.580000
 20
117.700000
 30
0.0
 10
384.580000
 20
123.490000
 30
0.0
 10
384.580000
 20
123.560000
 30
0.0
  0
ENDSEC
  0
SECTION
  2
OBJECTS
  0
DICTIONARY
  5
C
330
0
100
AcDbDictionary
  3
ACAD_GROUP
350
D
  3
ACAD_MLINESTYLE
350
17
  0
DICTIONARY
  5
D
330
C
100
AcDbDictionary
  0
DICTIONARY
  5
1A
330
C
100
AcDbDictionary
  0
DICTIONARY
  5
17
330
C
100
AcDbDictionary
  3
STANDARD
350
18
  0
DICTIONARY
  5
19
330
C
100
AcDbDictionary
  0
ENDSEC
  0
EOF
